<svg xmlns="http://www.w3.org/2000/svg" viewBox="7 1 50 61" role="img" aria-label="V logo">
  <rect width="64" height="64" fill="none"/>
  <path shape-rendering="crispEdges" fill="#8c8c89" d="M11 5 h8 v1 H11 z M46 5 h7 v1 H46 z M11 6 h8 v1 H11 z M45 6 h8 v1 H45 z M12 7 h8 v1 H12 z M45 7 h7 v1 H45 z M14 12 h8 v1 H14 z M42 12 h8 v1 H42 z M14 13 h8 v1 H14 z M42 13 h8 v1 H42 z M15 14 h8 v1 H15 z M41 14 h8 v1 H41 z M15 15 h8 v1 H15 z M41 15 h8 v1 H41 z M12 16 h8 v1 H12 z M44 16 h8 v1 H44 z M12 17 h8 v1 H12 z M44 17 h8 v1 H44 z M13 18 h8 v1 H13 z M44 18 h7 v1 H44 z M13 19 h8 v1 H13 z M43 19 h8 v1 H43 z M14 20 h8 v1 H14 z M42 20 h8 v1 H42 z M18 21 h6 v1 H18 z M41 21 h5 v1 H41 z M19 22 h4 v1 H19 z M41 22 h5 v1 H41 z M19 23 h3 v1 H19 z M42 23 h3 v1 H42 z M16 24 h8 v1 H16 z M40 24 h8 v1 H40 z M16 25 h8 v1 H16 z M40 25 h8 v1 H40 z M16 26 h8 v1 H16 z M40 26 h8 v1 H40 z M17 27 h7 v1 H17 z M40 27 h7 v1 H40 z M24 28 h5 v1 H24 z M35 28 h5 v1 H35 z M24 29 h6 v1 H24 z M34 29 h7 v1 H34 z M23 30 h7 v1 H23 z M34 30 h7 v1 H34 z M23 31 h8 v1 H23 z M33 31 h8 v1 H33 z M20 32 h2 v1 H20 z M26 32 h1 v1 H26 z M37 32 h1 v1 H37 z M42 32 h2 v1 H42 z M20 33 h1 v1 H20 z M25 33 h3 v1 H25 z M36 33 h3 v1 H36 z M43 33 h1 v1 H43 z M25 34 h3 v1 H25 z M36 34 h3 v1 H36 z M24 35 h4 v1 H24 z M36 35 h4 v1 H36 z M24 36 h5 v1 H24 z M35 36 h5 v1 H35 z M26 37 h13 v1 H26 z M26 38 h12 v1 H26 z M27 39 h11 v1 H27 z M24 40 h7 v1 H24 z M33 40 h7 v1 H33 z M24 41 h16 v1 H24 z M24 42 h16 v1 H24 z M25 43 h15 v1 H25 z M29 44 h6 v1 H29 z M29 45 h6 v1 H29 z M30 46 h4 v1 H30 z M30 47 h4 v1 H30 z M27 48 h10 v1 H27 z M28 49 h8 v1 H28 z M28 50 h8 v1 H28 z M28 51 h8 v1 H28 z M29 52 h6 v1 H29 z M31 56 h2 v1 H31 z M31 57 h2 v1 H31 z"/>
</svg>

